<?xml version="1.0" encoding="utf-8"?>
<!-- Generator: Adobe Illustrator 21.0.0, SVG Export Plug-In . SVG Version: 6.00 Build 0)  -->
<svg version="1.1" id="Layer_1" xmlns="http://www.w3.org/2000/svg" xmlns:xlink="http://www.w3.org/1999/xlink" x="0px" y="0px"
	 viewBox="0 0 360 360" style="enable-background:new 0 0 360 360;" xml:space="preserve">
<style type="text/css">
	.st0{fill:#FFFFFF;}
	.st1{fill:#6C5B7B;}
</style>
<path class="st0" d="M1343-1063"/>
<rect x="-50" y="-1179" class="st1" width="612" height="587"/>
<rect x="0" class="st1" width="360" height="360"/>
<path class="st0" d="M69-1028h67.4v128c0,0-1,19,15.6,17v61c0,0-73.7,3-83-67V-1028z"/>
<path class="st0" d="M256-1028h-56.9v128c0,0,0.9,19-13.1,17v61c0,0,62.1,3,70-67V-1028z"/>
<polygon class="st0" points="198.1,-1053.4 170,-1053.4 170,-1077.7 202.6,-1109 256,-1109 256,-998.7 256,-957 200.8,-957 "/>
<rect x="152" y="-883" class="st0" width="34" height="61"/>
<polygon class="st0" points="256,-1023.5 409,-1023.5 409,-989.2 289.5,-989.2 289.5,-957.3 409,-957.3 409,-855 256,-855 
	256,-889.4 380.4,-891 380.4,-922.9 256,-922.9 "/>
<polyline class="st1" points="209,-838 209,-869 207,-1067 181,-1067 181,-1077 207,-1098 247,-1098 247,-895 223,-895 215,-895 "/>
<rect x="-36" y="-429" class="st1" width="498" height="328"/>
<polygon class="st0" points="1589.1,-1029.4 1564,-1029.4 1564,-1053.7 1593.2,-1085 1641,-1085 1641,-974.7 1641,-933 1591.6,-933 
	"/>
<g>
	<path class="st0" d="M1482-989.2h57V-881c0,0-0.9,16.1,13.2,14.4v51.6c0,0-62.3,2.5-70.2-56.7V-989.2z"/>
	<path class="st0" d="M1640.1-989.2H1592V-881c0,0,0.7,16.1-11.1,14.4v51.6c0,0,52.5,2.5,59.2-56.7V-989.2z"/>
	<rect x="1552.2" y="-866.6" class="st0" width="28.7" height="51.6"/>
</g>
<polygon class="st0" points="1649,-986.5 1802,-986.5 1802,-952.2 1682.5,-952.2 1682.5,-920.3 1802,-920.3 1802,-818 1649,-818 
	1649,-852.4 1773.4,-854 1773.4,-885.9 1649,-885.9 "/>
<polyline class="st1" points="2030,-653 2030,-684 2028,-882 2002,-882 2002,-892 2028,-913 2068,-913 2068,-710 2044,-710 
	2036,-710 "/>
<polygon class="st1" points="2025,-989 2060,-947 2025,-947 "/>
<path class="st0" d="M14-326.2h57.7v109.5c0,0-0.9,16.3,13.3,14.5v52.2c0,0-63,2.6-71-57.3V-326.2z"/>
<path class="st0" d="M203-327h-55.2v110c0,0,0.8,16.3-12.8,14.6v52.4c0,0,60.3,2.6,68-57.6V-327z"/>
<polygon class="st0" points="147.1,-325.4 120,-325.4 120,-349.7 151.5,-381 203,-381 203,-270.7 203,-229 149.8,-229 "/>
<rect x="83" y="-201.6" class="st0" width="57" height="51.6"/>
<rect x="72" y="-327" class="st1" width="77.2" height="126.4"/>
<path class="st1" d="M901-477v14c0,0-0.2,28-36.3,43v-31l-1.9-198H838v-10l24.8-21H901V-477h-22.9h-7.6"/>
<rect x="861" y="-652" class="st1" width="5" height="232"/>
<polygon class="st1" points="832,-653.5 832,-640 863,-640 863,-658 "/>
<rect x="859" y="-684" class="st1" width="42" height="8"/>
<polygon class="st1" points="832,-651.4 832,-655.8 859,-684 867,-676.4 838,-646 "/>
<path class="st1" d="M619-363v14c0,0-0.2,28-36.3,43v-31l-1.9-198H556v-10l24.8-21H619V-363h-22.9h-7.6"/>
<rect x="579" y="-538" class="st1" width="5" height="232"/>
<polygon class="st1" points="550,-539.5 550,-526 581,-526 581,-544 "/>
<rect x="577" y="-570" class="st1" width="42" height="8"/>
<polygon class="st1" points="550,-537.4 550,-541.8 577,-570 585,-562.4 556,-532 "/>
<path class="st1" d="M197-223.4v10.2c0,0-0.2,20.4-36.3,31.3v-22.5l-1.9-143.9H134l6-6.5l18.8-16H197V-223.4h-22.9h-7.6"/>
<rect x="156" y="-343" class="st1" width="14" height="167"/>
<polygon class="st1" points="127,-347.5 127,-333 165,-333 165,-352 "/>
<rect x="154" y="-375" class="st1" width="43" height="8"/>
<polygon class="st1" points="127,-344.1 127,-348.3 154,-375 162,-367.8 133,-339 "/>
<g>
	<polygon class="st0" points="222,-330 410.5,-330 410.5,-293.2 263.3,-293.2 263.3,-259.1 410.5,-259.1 410.5,-149.6 222,-149.6 
		222,-186.4 375.2,-188.1 375.2,-222.3 222,-222.3 	"/>
	<rect x="366.1" y="-330" class="st0" width="44.9" height="58.4"/>
	<rect x="221.5" y="-202.4" class="st0" width="44.9" height="52.8"/>
</g>
<path class="st1" d="M196.8-211.7c0.2-0.3-4.8,45.7-40.2,49.6c-0.3,0-0.6-0.2-0.6-0.5v-19.1c0-0.2,0.1-0.3,0.2-0.4L194-220
	C197-226,196.5-211.3,196.8-211.7z"/>
<path class="st0" d="M21,125.6h45.9v87.1c0,0-0.7,12.9,10.6,11.6v41.5c0,0-50.1,2-56.5-45.6V125.6z"/>
<path class="st0" d="M171.3,124.9h-43.9v87.5c0,0,0.7,13-10.1,11.6v41.7c0,0,48,2,54.1-45.8V124.9z"/>
<polygon class="st0" points="126.8,126.2 105.3,126.2 105.3,106.9 130.3,82 171.3,82 171.3,169.7 171.3,202.9 129,202.9 "/>
<rect x="75.9" y="224.6" class="st0" width="45.3" height="41.1"/>
<rect x="67.1" y="124.9" class="st1" width="61.4" height="100.5"/>
<path class="st1" d="M166.5,207.3v8.1c0,0-0.2,16.2-28.8,24.9v-17.9l-1.5-114.5h-19.7l4.8-5.2l15-12.7h30.4V207.3h-18.2h-6.1"/>
<rect x="133.9" y="112.2" class="st1" width="11.1" height="132.8"/>
<polygon class="st1" points="110.9,108.6 110.9,120.2 141.1,120.2 141.1,105.1 "/>
<rect x="132.3" y="86.8" class="st1" width="34.2" height="6.4"/>
<polygon class="st1" points="110.9,111.3 110.9,108 132.3,86.8 138.7,92.5 115.6,115.4 "/>
<g>
	<polygon class="st0" points="186.4,122.6 336.3,122.6 336.3,151.8 219.3,151.8 219.3,179 336.3,179 336.3,266 186.4,266 
		186.4,236.8 308.2,235.4 308.2,208.2 186.4,208.2 	"/>
	<rect x="301" y="122.6" class="st0" width="35.7" height="46.5"/>
	<rect x="186" y="224" class="st0" width="35.7" height="42"/>
</g>
<path class="st1" d="M166.3,216.6c0.2-0.2-3.8,36.3-32,39.5c-0.2,0-0.5-0.2-0.5-0.4v-15.2c0-0.1,0.1-0.3,0.2-0.3l30.1-30.1
	C166.5,205.3,166.1,216.9,166.3,216.6z"/>
</svg>
