<?xml version="1.0" encoding="utf-8"?>
<!-- Generator: Adobe Illustrator 21.0.0, SVG Export Plug-In . SVG Version: 6.00 Build 0)  -->
<svg version="1.1" id="Layer_1" xmlns="http://www.w3.org/2000/svg" xmlns:xlink="http://www.w3.org/1999/xlink" x="0px" y="0px"
	 viewBox="0 0 498 328" style="enable-background:new 0 0 498 328;" xml:space="preserve">
<style type="text/css">
	.st0{fill:#FFFFFF;}
	.st1{fill:#6C5B7B;}
</style>
<path class="st0" d="M1379-634"/>
<rect x="-14" y="-750" class="st1" width="612" height="587"/>
<path class="st0" d="M105-599h67.4v128c0,0-1,19,15.6,17v61c0,0-73.7,3-83-67V-599z"/>
<path class="st0" d="M292-599h-56.9v128c0,0,0.9,19-13.1,17v61c0,0,62.1,3,70-67V-599z"/>
<polygon class="st0" points="234.1,-624.4 206,-624.4 206,-648.7 238.6,-680 292,-680 292,-569.7 292,-528 236.8,-528 "/>
<rect x="188" y="-454" class="st0" width="34" height="61"/>
<polygon class="st0" points="292,-594.5 445,-594.5 445,-560.2 325.5,-560.2 325.5,-528.3 445,-528.3 445,-426 292,-426 292,-460.4 
	416.4,-462 416.4,-493.9 292,-493.9 "/>
<polyline class="st1" points="245,-409 245,-440 243,-638 217,-638 217,-648 243,-669 283,-669 283,-466 259,-466 251,-466 "/>
<rect class="st1" width="498" height="328"/>
<polygon class="st0" points="1625.1,-600.4 1600,-600.4 1600,-624.7 1629.2,-656 1677,-656 1677,-545.7 1677,-504 1627.6,-504 "/>
<g>
	<path class="st0" d="M1518-560.2h57V-452c0,0-0.9,16.1,13.2,14.4v51.6c0,0-62.3,2.5-70.2-56.7V-560.2z"/>
	<path class="st0" d="M1676.1-560.2H1628V-452c0,0,0.7,16.1-11.1,14.4v51.6c0,0,52.5,2.5,59.2-56.7V-560.2z"/>
	<rect x="1588.2" y="-437.6" class="st0" width="28.7" height="51.6"/>
</g>
<polygon class="st0" points="1685,-557.5 1838,-557.5 1838,-523.2 1718.5,-523.2 1718.5,-491.3 1838,-491.3 1838,-389 1685,-389 
	1685,-423.4 1809.4,-425 1809.4,-456.9 1685,-456.9 "/>
<polyline class="st1" points="2066,-224 2066,-255 2064,-453 2038,-453 2038,-463 2064,-484 2104,-484 2104,-281 2080,-281 
	2072,-281 "/>
<polygon class="st1" points="2061,-560 2096,-518 2061,-518 "/>
<path class="st0" d="M50,102.8h57.7v109.5c0,0-0.9,16.3,13.3,14.5V279c0,0-63,2.6-71-57.3V102.8z"/>
<path class="st0" d="M239,102h-55.2v110c0,0,0.8,16.3-12.8,14.6V279c0,0,60.3,2.6,68-57.6V102z"/>
<polygon class="st0" points="183.1,103.6 156,103.6 156,79.3 187.5,48 239,48 239,158.3 239,200 185.8,200 "/>
<rect x="119" y="227.4" class="st0" width="57" height="51.6"/>
<rect x="108" y="102" class="st1" width="77.2" height="126.4"/>
<path class="st1" d="M937-48v14c0,0-0.2,28-36.3,43v-31l-1.9-198H874v-10l24.8-21H937V-48h-22.9h-7.6"/>
<rect x="897" y="-223" class="st1" width="5" height="232"/>
<polygon class="st1" points="868,-224.5 868,-211 899,-211 899,-229 "/>
<rect x="895" y="-255" class="st1" width="42" height="8"/>
<polygon class="st1" points="868,-222.4 868,-226.8 895,-255 903,-247.4 874,-217 "/>
<path class="st1" d="M655,66v14c0,0-0.2,28-36.3,43V92l-1.9-198H592v-10l24.8-21H655V66h-22.9h-7.6"/>
<rect x="615" y="-109" class="st1" width="5" height="232"/>
<polygon class="st1" points="586,-110.5 586,-97 617,-97 617,-115 "/>
<rect x="613" y="-141" class="st1" width="42" height="8"/>
<polygon class="st1" points="586,-108.4 586,-112.8 613,-141 621,-133.4 592,-103 "/>
<path class="st1" d="M233,205.6v10.2c0,0-0.2,20.4-36.3,31.3v-22.5l-1.9-143.9H170l6-6.5l18.8-16H233V205.6h-22.9h-7.6"/>
<rect x="192" y="86" class="st1" width="14" height="167"/>
<polygon class="st1" points="163,81.5 163,96 201,96 201,77 "/>
<rect x="190" y="54" class="st1" width="43" height="8"/>
<polygon class="st1" points="163,84.9 163,80.7 190,54 198,61.2 169,90 "/>
<g>
	<polygon class="st0" points="258,99 446.5,99 446.5,135.8 299.3,135.8 299.3,169.9 446.5,169.9 446.5,279.4 258,279.4 258,242.6 
		411.2,240.9 411.2,206.7 258,206.7 	"/>
	<rect x="402.1" y="99" class="st0" width="44.9" height="58.4"/>
	<rect x="257.5" y="226.6" class="st0" width="44.9" height="52.8"/>
</g>
<path class="st1" d="M232.8,217.3c0.2-0.3-4.8,45.7-40.2,49.6c-0.3,0-0.6-0.2-0.6-0.5v-19.1c0-0.2,0.1-0.3,0.2-0.4L230,209
	C233,203,232.5,217.7,232.8,217.3z"/>
</svg>
